<svg width="292" height="238" viewBox="0 0 292 238" fill="none" xmlns="http://www.w3.org/2000/svg">
<g clip-path="url(#clip0_19_72)">
<g clip-path="url(#clip1_19_72)">
<path d="M174.5 42.5H117.5C100.655 42.5 87 56.1553 87 73V108C87 124.845 100.655 138.5 117.5 138.5H174.5C191.345 138.5 205 124.845 205 108V73C205 56.1553 191.345 42.5 174.5 42.5Z" fill="#A3D5FF" stroke="black" stroke-width="7"/>
<path d="M148.5 39C148.5 36.1576 149.8 33.4711 152.028 31.7068L160.5 25" stroke="black" stroke-width="8" stroke-linecap="round"/>
<path d="M123 103C133.217 103 141.5 94.7173 141.5 84.5C141.5 74.2827 133.217 66 123 66C112.783 66 104.5 74.2827 104.5 84.5C104.5 94.7173 112.783 103 123 103Z" fill="black"/>
<path d="M126.5 89C129.814 89 132.5 86.3137 132.5 83C132.5 79.6863 129.814 77 126.5 77C123.186 77 120.5 79.6863 120.5 83C120.5 86.3137 123.186 89 126.5 89Z" fill="white"/>
<path d="M170 103C180.217 103 188.5 94.7173 188.5 84.5C188.5 74.2827 180.217 66 170 66C159.783 66 151.5 74.2827 151.5 84.5C151.5 94.7173 159.783 103 170 103Z" fill="black"/>
<path d="M173.5 89C176.814 89 179.5 86.3137 179.5 83C179.5 79.6863 176.814 77 173.5 77C170.186 77 167.5 79.6863 167.5 83C167.5 86.3137 170.186 89 173.5 89Z" fill="white"/>
<path d="M132.5 111L138 113.946C143.31 116.791 149.69 116.791 155 113.946L160.5 111" stroke="black" stroke-width="5" stroke-linecap="round"/>
<path d="M173 31C181.56 31 188.5 24.0604 188.5 15.5C188.5 6.93959 181.56 0 173 0C164.44 0 157.5 6.93959 157.5 15.5C157.5 24.0604 164.44 31 173 31Z" fill="black"/>
<path d="M173 21C176.038 21 178.5 18.5376 178.5 15.5C178.5 12.4624 176.038 10 173 10C169.962 10 167.5 12.4624 167.5 15.5C167.5 18.5376 169.962 21 173 21Z" fill="#A3D5FF"/>
</g>
<path d="M65.792 167.072L54.08 212H40.832L33.664 182.432L26.24 212H12.992L1.6 167.072H13.312L19.776 199.776L27.776 167.072H39.808L47.488 199.776L54.016 167.072H65.792ZM86.8965 212.512C83.3978 212.512 80.2405 211.765 77.4245 210.272C74.6512 208.779 72.4538 206.645 70.8325 203.872C69.2538 201.099 68.4645 197.856 68.4645 194.144C68.4645 190.475 69.2752 187.253 70.8965 184.48C72.5178 181.664 74.7365 179.509 77.5525 178.016C80.3685 176.523 83.5258 175.776 87.0245 175.776C90.5232 175.776 93.6805 176.523 96.4965 178.016C99.3125 179.509 101.531 181.664 103.153 184.48C104.774 187.253 105.585 190.475 105.585 194.144C105.585 197.813 104.753 201.056 103.089 203.872C101.467 206.645 99.2272 208.779 96.3685 210.272C93.5525 211.765 90.3952 212.512 86.8965 212.512ZM86.8965 203.04C88.9872 203.04 90.7578 202.272 92.2085 200.736C93.7018 199.2 94.4485 197.003 94.4485 194.144C94.4485 191.285 93.7232 189.088 92.2725 187.552C90.8645 186.016 89.1152 185.248 87.0245 185.248C84.8912 185.248 83.1205 186.016 81.7125 187.552C80.3045 189.045 79.6005 191.243 79.6005 194.144C79.6005 197.003 80.2832 199.2 81.6485 200.736C83.0565 202.272 84.8058 203.04 86.8965 203.04ZM121.695 182.24C122.975 180.277 124.575 178.741 126.495 177.632C128.415 176.48 130.548 175.904 132.895 175.904V187.488H129.887C127.156 187.488 125.108 188.085 123.743 189.28C122.377 190.432 121.695 192.48 121.695 195.424V212H110.751V176.288H121.695V182.24ZM159.31 212L148.43 197.024V212H137.486V164.64H148.43V190.816L159.246 176.288H172.75L157.902 194.208L172.878 212H159.31ZM187.352 164.64V212H176.408V164.64H187.352ZM231.123 176.288L208.723 228.96H196.947L205.139 210.784L190.611 176.288H202.835L211.091 198.624L219.283 176.288H231.123ZM248.969 212.512C245.854 212.512 243.081 211.979 240.649 210.912C238.217 209.845 236.297 208.395 234.889 206.56C233.481 204.683 232.691 202.592 232.521 200.288H243.337C243.465 201.525 244.041 202.528 245.065 203.296C246.089 204.064 247.347 204.448 248.841 204.448C250.206 204.448 251.251 204.192 251.977 203.68C252.745 203.125 253.129 202.421 253.129 201.568C253.129 200.544 252.595 199.797 251.529 199.328C250.462 198.816 248.734 198.261 246.345 197.664C243.785 197.067 241.651 196.448 239.945 195.808C238.238 195.125 236.766 194.08 235.529 192.672C234.291 191.221 233.673 189.28 233.673 186.848C233.673 184.8 234.227 182.944 235.337 181.28C236.489 179.573 238.153 178.229 240.329 177.248C242.547 176.267 245.171 175.776 248.201 175.776C252.681 175.776 256.201 176.885 258.761 179.104C261.363 181.323 262.857 184.267 263.241 187.936H253.129C252.958 186.699 252.403 185.717 251.465 184.992C250.569 184.267 249.374 183.904 247.881 183.904C246.601 183.904 245.619 184.16 244.937 184.672C244.254 185.141 243.913 185.803 243.913 186.656C243.913 187.68 244.446 188.448 245.513 188.96C246.622 189.472 248.329 189.984 250.633 190.496C253.278 191.179 255.433 191.861 257.097 192.544C258.761 193.184 260.211 194.251 261.449 195.744C262.729 197.195 263.39 199.157 263.433 201.632C263.433 203.723 262.835 205.6 261.641 207.264C260.489 208.885 258.803 210.165 256.585 211.104C254.409 212.043 251.87 212.512 248.969 212.512ZM289.392 202.72V212H283.824C279.856 212 276.763 211.04 274.544 209.12C272.325 207.157 271.216 203.979 271.216 199.584V185.376H266.864V176.288H271.216V167.584H282.16V176.288H289.328V185.376H282.16V199.712C282.16 200.779 282.416 201.547 282.928 202.016C283.44 202.485 284.293 202.72 285.488 202.72H289.392Z" fill="black"/>
</g>
<defs>
<clipPath id="clip0_19_72">
<rect width="292" height="238" fill="white"/>
</clipPath>
<clipPath id="clip1_19_72">
<rect width="125" height="142" fill="white" transform="translate(83.5)"/>
</clipPath>
</defs>
</svg>
